<svg xmlns="http://www.w3.org/2000/svg" xmlns:xlink="http://www.w3.org/1999/xlink" width="600" zoomAndPan="magnify" viewBox="0 0 450 84.749999" height="113" preserveAspectRatio="xMidYMid meet" version="1.0"><defs><g/><clipPath id="id1"><path d="M 63.957031 51.347656 L 386.257812 51.347656 L 386.257812 76.023438 L 63.957031 76.023438 Z M 63.957031 51.347656 " clip-rule="nonzero"/></clipPath></defs><g clip-path="url(#id1)"><path fill="#5271ff" d="M 63.976562 51.347656 L 63.976562 76.023438 L 386.234375 76.023438 L 386.234375 51.347656 L 63.976562 51.347656 M 385.425781 75.214844 L 64.769531 75.214844 L 64.769531 52.140625 L 385.425781 52.140625 L 385.425781 75.214844 " fill-opacity="1" fill-rule="nonzero"/></g><g fill="#004aad" fill-opacity="1"><g transform="translate(78.761397, 68.345079)"><g><path d="M 6.90625 -1.59375 C 6.90625 -1.125 6.929688 -0.59375 6.984375 0 C 6.421875 -0.0195312 5.472656 -0.03125 4.140625 -0.03125 C 2.546875 -0.03125 1.335938 -0.0195312 0.515625 0 L 0.515625 -0.25 C 0.816406 -0.269531 1.035156 -0.300781 1.171875 -0.34375 C 1.304688 -0.394531 1.398438 -0.488281 1.453125 -0.625 C 1.503906 -0.769531 1.53125 -1 1.53125 -1.3125 L 1.53125 -7.5 C 1.53125 -7.8125 1.503906 -8.035156 1.453125 -8.171875 C 1.398438 -8.316406 1.304688 -8.414062 1.171875 -8.46875 C 1.035156 -8.519531 0.816406 -8.550781 0.515625 -8.5625 L 0.515625 -8.8125 C 1.335938 -8.789062 2.546875 -8.78125 4.140625 -8.78125 C 5.359375 -8.78125 6.222656 -8.789062 6.734375 -8.8125 C 6.679688 -8.269531 6.65625 -7.78125 6.65625 -7.34375 C 6.65625 -7.019531 6.664062 -6.765625 6.6875 -6.578125 L 6.40625 -6.578125 C 6.34375 -7.117188 6.265625 -7.519531 6.171875 -7.78125 C 6.085938 -8.039062 5.9375 -8.226562 5.71875 -8.34375 C 5.5 -8.46875 5.171875 -8.53125 4.734375 -8.53125 L 3.703125 -8.53125 C 3.398438 -8.53125 3.179688 -8.503906 3.046875 -8.453125 C 2.910156 -8.410156 2.816406 -8.316406 2.765625 -8.171875 C 2.710938 -8.035156 2.6875 -7.8125 2.6875 -7.5 L 2.6875 -4.5625 L 3.515625 -4.5625 C 3.804688 -4.5625 4.03125 -4.628906 4.1875 -4.765625 C 4.34375 -4.898438 4.445312 -5.0625 4.5 -5.25 C 4.550781 -5.4375 4.59375 -5.671875 4.625 -5.953125 L 4.671875 -6.203125 L 4.953125 -6.203125 C 4.929688 -5.847656 4.921875 -5.457031 4.921875 -5.03125 L 4.921875 -4.4375 C 4.921875 -4.007812 4.945312 -3.421875 5 -2.671875 L 4.703125 -2.671875 C 4.691406 -2.722656 4.664062 -2.921875 4.625 -3.265625 C 4.582031 -3.609375 4.46875 -3.867188 4.28125 -4.046875 C 4.101562 -4.222656 3.847656 -4.3125 3.515625 -4.3125 L 2.6875 -4.3125 L 2.6875 -1.3125 C 2.6875 -1 2.710938 -0.769531 2.765625 -0.625 C 2.816406 -0.488281 2.910156 -0.394531 3.046875 -0.34375 C 3.179688 -0.300781 3.398438 -0.28125 3.703125 -0.28125 L 4.609375 -0.28125 C 5.117188 -0.28125 5.507812 -0.347656 5.78125 -0.484375 C 6.050781 -0.628906 6.25 -0.851562 6.375 -1.15625 C 6.5 -1.457031 6.59375 -1.898438 6.65625 -2.484375 L 6.9375 -2.484375 C 6.914062 -2.265625 6.90625 -1.96875 6.90625 -1.59375 Z M 6.90625 -1.59375 "/></g></g></g><g fill="#004aad" fill-opacity="1"><g transform="translate(95.997699, 68.345079)"><g><path d="M 4.625 -8.984375 C 5.125 -8.984375 5.546875 -8.910156 5.890625 -8.765625 C 6.234375 -8.628906 6.570312 -8.4375 6.90625 -8.1875 C 7 -8.101562 7.078125 -8.0625 7.140625 -8.0625 C 7.304688 -8.0625 7.414062 -8.3125 7.46875 -8.8125 L 7.765625 -8.8125 C 7.722656 -8.269531 7.703125 -7.316406 7.703125 -5.953125 L 7.421875 -5.953125 C 7.328125 -6.492188 7.242188 -6.878906 7.171875 -7.109375 C 7.097656 -7.347656 6.972656 -7.578125 6.796875 -7.796875 C 6.546875 -8.117188 6.226562 -8.359375 5.84375 -8.515625 C 5.457031 -8.679688 5.039062 -8.765625 4.59375 -8.765625 C 4.050781 -8.765625 3.578125 -8.585938 3.171875 -8.234375 C 2.773438 -7.878906 2.460938 -7.367188 2.234375 -6.703125 C 2.015625 -6.046875 1.90625 -5.273438 1.90625 -4.390625 C 1.90625 -3.484375 2.023438 -2.703125 2.265625 -2.046875 C 2.503906 -1.398438 2.835938 -0.910156 3.265625 -0.578125 C 3.691406 -0.242188 4.175781 -0.078125 4.71875 -0.078125 C 5.132812 -0.078125 5.535156 -0.15625 5.921875 -0.3125 C 6.316406 -0.46875 6.625 -0.703125 6.84375 -1.015625 C 7.007812 -1.253906 7.128906 -1.503906 7.203125 -1.765625 C 7.285156 -2.035156 7.359375 -2.441406 7.421875 -2.984375 L 7.703125 -2.984375 C 7.703125 -1.554688 7.722656 -0.5625 7.765625 0 L 7.46875 0 C 7.445312 -0.269531 7.410156 -0.457031 7.359375 -0.5625 C 7.316406 -0.675781 7.253906 -0.734375 7.171875 -0.734375 C 7.109375 -0.734375 7.019531 -0.703125 6.90625 -0.640625 C 6.53125 -0.367188 6.171875 -0.164062 5.828125 -0.03125 C 5.492188 0.101562 5.085938 0.171875 4.609375 0.171875 C 3.816406 0.171875 3.125 -0.00390625 2.53125 -0.359375 C 1.9375 -0.710938 1.472656 -1.226562 1.140625 -1.90625 C 0.816406 -2.582031 0.65625 -3.390625 0.65625 -4.328125 C 0.65625 -5.242188 0.820312 -6.054688 1.15625 -6.765625 C 1.5 -7.472656 1.96875 -8.019531 2.5625 -8.40625 C 3.164062 -8.789062 3.851562 -8.984375 4.625 -8.984375 Z M 4.625 -8.984375 "/></g></g></g><g fill="#004aad" fill-opacity="1"><g transform="translate(114.217075, 68.345079)"><g><path d="M 4.625 -8.984375 C 5.40625 -8.984375 6.09375 -8.804688 6.6875 -8.453125 C 7.28125 -8.097656 7.738281 -7.582031 8.0625 -6.90625 C 8.394531 -6.226562 8.5625 -5.421875 8.5625 -4.484375 C 8.5625 -3.566406 8.394531 -2.753906 8.0625 -2.046875 C 7.726562 -1.347656 7.257812 -0.800781 6.65625 -0.40625 C 6.050781 -0.0195312 5.367188 0.171875 4.609375 0.171875 C 3.816406 0.171875 3.125 -0.00390625 2.53125 -0.359375 C 1.9375 -0.710938 1.472656 -1.226562 1.140625 -1.90625 C 0.816406 -2.582031 0.65625 -3.390625 0.65625 -4.328125 C 0.65625 -5.242188 0.820312 -6.054688 1.15625 -6.765625 C 1.5 -7.472656 1.96875 -8.019531 2.5625 -8.40625 C 3.164062 -8.789062 3.851562 -8.984375 4.625 -8.984375 Z M 4.5625 -8.765625 C 4.03125 -8.765625 3.5625 -8.578125 3.15625 -8.203125 C 2.757812 -7.835938 2.453125 -7.320312 2.234375 -6.65625 C 2.015625 -6 1.90625 -5.242188 1.90625 -4.390625 C 1.90625 -3.523438 2.023438 -2.765625 2.265625 -2.109375 C 2.515625 -1.453125 2.847656 -0.941406 3.265625 -0.578125 C 3.679688 -0.222656 4.144531 -0.046875 4.65625 -0.046875 C 5.1875 -0.046875 5.648438 -0.226562 6.046875 -0.59375 C 6.453125 -0.96875 6.765625 -1.488281 6.984375 -2.15625 C 7.210938 -2.820312 7.328125 -3.582031 7.328125 -4.4375 C 7.328125 -5.300781 7.203125 -6.0625 6.953125 -6.71875 C 6.710938 -7.375 6.382812 -7.878906 5.96875 -8.234375 C 5.550781 -8.585938 5.082031 -8.765625 4.5625 -8.765625 Z M 4.5625 -8.765625 "/></g></g></g><g fill="#004aad" fill-opacity="1"><g transform="translate(133.095988, 68.345079)"><g><path d="M 10.328125 -8.5625 C 10.023438 -8.550781 9.804688 -8.519531 9.671875 -8.46875 C 9.535156 -8.414062 9.441406 -8.316406 9.390625 -8.171875 C 9.335938 -8.035156 9.3125 -7.8125 9.3125 -7.5 L 9.3125 -1.3125 C 9.3125 -1 9.335938 -0.769531 9.390625 -0.625 C 9.441406 -0.488281 9.535156 -0.394531 9.671875 -0.34375 C 9.804688 -0.300781 10.023438 -0.269531 10.328125 -0.25 L 10.328125 0 C 9.941406 -0.0195312 9.410156 -0.03125 8.734375 -0.03125 C 8.023438 -0.03125 7.492188 -0.0195312 7.140625 0 L 7.140625 -0.25 C 7.441406 -0.269531 7.660156 -0.300781 7.796875 -0.34375 C 7.929688 -0.394531 8.023438 -0.488281 8.078125 -0.625 C 8.128906 -0.769531 8.15625 -1 8.15625 -1.3125 L 8.15625 -8 L 5.15625 0.0625 L 4.953125 0.0625 L 1.8125 -8.015625 L 1.8125 -1.4375 C 1.8125 -1.113281 1.835938 -0.875 1.890625 -0.71875 C 1.953125 -0.5625 2.0625 -0.445312 2.21875 -0.375 C 2.375 -0.3125 2.617188 -0.269531 2.953125 -0.25 L 2.953125 0 C 2.648438 -0.0195312 2.226562 -0.03125 1.6875 -0.03125 C 1.1875 -0.03125 0.796875 -0.0195312 0.515625 0 L 0.515625 -0.25 C 0.804688 -0.269531 1.019531 -0.3125 1.15625 -0.375 C 1.300781 -0.445312 1.398438 -0.5625 1.453125 -0.71875 C 1.503906 -0.882812 1.53125 -1.125 1.53125 -1.4375 L 1.53125 -7.5 C 1.53125 -7.8125 1.503906 -8.035156 1.453125 -8.171875 C 1.398438 -8.316406 1.304688 -8.414062 1.171875 -8.46875 C 1.035156 -8.519531 0.816406 -8.550781 0.515625 -8.5625 L 0.515625 -8.8125 C 0.796875 -8.789062 1.1875 -8.78125 1.6875 -8.78125 C 2.113281 -8.78125 2.460938 -8.789062 2.734375 -8.8125 L 5.484375 -1.609375 L 8.15625 -8.78125 L 8.734375 -8.78125 C 9.410156 -8.78125 9.941406 -8.789062 10.328125 -8.8125 Z M 10.328125 -8.5625 "/></g></g></g><g fill="#004aad" fill-opacity="1"><g transform="translate(153.592626, 68.345079)"><g><path d="M 10.328125 -8.5625 C 10.023438 -8.550781 9.804688 -8.519531 9.671875 -8.46875 C 9.535156 -8.414062 9.441406 -8.316406 9.390625 -8.171875 C 9.335938 -8.035156 9.3125 -7.8125 9.3125 -7.5 L 9.3125 -1.3125 C 9.3125 -1 9.335938 -0.769531 9.390625 -0.625 C 9.441406 -0.488281 9.535156 -0.394531 9.671875 -0.34375 C 9.804688 -0.300781 10.023438 -0.269531 10.328125 -0.25 L 10.328125 0 C 9.941406 -0.0195312 9.410156 -0.03125 8.734375 -0.03125 C 8.023438 -0.03125 7.492188 -0.0195312 7.140625 0 L 7.140625 -0.25 C 7.441406 -0.269531 7.660156 -0.300781 7.796875 -0.34375 C 7.929688 -0.394531 8.023438 -0.488281 8.078125 -0.625 C 8.128906 -0.769531 8.15625 -1 8.15625 -1.3125 L 8.15625 -8 L 5.15625 0.0625 L 4.953125 0.0625 L 1.8125 -8.015625 L 1.8125 -1.4375 C 1.8125 -1.113281 1.835938 -0.875 1.890625 -0.71875 C 1.953125 -0.5625 2.0625 -0.445312 2.21875 -0.375 C 2.375 -0.3125 2.617188 -0.269531 2.953125 -0.25 L 2.953125 0 C 2.648438 -0.0195312 2.226562 -0.03125 1.6875 -0.03125 C 1.1875 -0.03125 0.796875 -0.0195312 0.515625 0 L 0.515625 -0.25 C 0.804688 -0.269531 1.019531 -0.3125 1.15625 -0.375 C 1.300781 -0.445312 1.398438 -0.5625 1.453125 -0.71875 C 1.503906 -0.882812 1.53125 -1.125 1.53125 -1.4375 L 1.53125 -7.5 C 1.53125 -7.8125 1.503906 -8.035156 1.453125 -8.171875 C 1.398438 -8.316406 1.304688 -8.414062 1.171875 -8.46875 C 1.035156 -8.519531 0.816406 -8.550781 0.515625 -8.5625 L 0.515625 -8.8125 C 0.796875 -8.789062 1.1875 -8.78125 1.6875 -8.78125 C 2.113281 -8.78125 2.460938 -8.789062 2.734375 -8.8125 L 5.484375 -1.609375 L 8.15625 -8.78125 L 8.734375 -8.78125 C 9.410156 -8.78125 9.941406 -8.789062 10.328125 -8.8125 Z M 10.328125 -8.5625 "/></g></g></g><g fill="#004aad" fill-opacity="1"><g transform="translate(174.089264, 68.345079)"><g><path d="M 6.90625 -1.59375 C 6.90625 -1.125 6.929688 -0.59375 6.984375 0 C 6.421875 -0.0195312 5.472656 -0.03125 4.140625 -0.03125 C 2.546875 -0.03125 1.335938 -0.0195312 0.515625 0 L 0.515625 -0.25 C 0.816406 -0.269531 1.035156 -0.300781 1.171875 -0.34375 C 1.304688 -0.394531 1.398438 -0.488281 1.453125 -0.625 C 1.503906 -0.769531 1.53125 -1 1.53125 -1.3125 L 1.53125 -7.5 C 1.53125 -7.8125 1.503906 -8.035156 1.453125 -8.171875 C 1.398438 -8.316406 1.304688 -8.414062 1.171875 -8.46875 C 1.035156 -8.519531 0.816406 -8.550781 0.515625 -8.5625 L 0.515625 -8.8125 C 1.335938 -8.789062 2.546875 -8.78125 4.140625 -8.78125 C 5.359375 -8.78125 6.222656 -8.789062 6.734375 -8.8125 C 6.679688 -8.269531 6.65625 -7.78125 6.65625 -7.34375 C 6.65625 -7.019531 6.664062 -6.765625 6.6875 -6.578125 L 6.40625 -6.578125 C 6.34375 -7.117188 6.265625 -7.519531 6.171875 -7.78125 C 6.085938 -8.039062 5.9375 -8.226562 5.71875 -8.34375 C 5.5 -8.46875 5.171875 -8.53125 4.734375 -8.53125 L 3.703125 -8.53125 C 3.398438 -8.53125 3.179688 -8.503906 3.046875 -8.453125 C 2.910156 -8.410156 2.816406 -8.316406 2.765625 -8.171875 C 2.710938 -8.035156 2.6875 -7.8125 2.6875 -7.5 L 2.6875 -4.5625 L 3.515625 -4.5625 C 3.804688 -4.5625 4.03125 -4.628906 4.1875 -4.765625 C 4.34375 -4.898438 4.445312 -5.0625 4.5 -5.25 C 4.550781 -5.4375 4.59375 -5.671875 4.625 -5.953125 L 4.671875 -6.203125 L 4.953125 -6.203125 C 4.929688 -5.847656 4.921875 -5.457031 4.921875 -5.03125 L 4.921875 -4.4375 C 4.921875 -4.007812 4.945312 -3.421875 5 -2.671875 L 4.703125 -2.671875 C 4.691406 -2.722656 4.664062 -2.921875 4.625 -3.265625 C 4.582031 -3.609375 4.46875 -3.867188 4.28125 -4.046875 C 4.101562 -4.222656 3.847656 -4.3125 3.515625 -4.3125 L 2.6875 -4.3125 L 2.6875 -1.3125 C 2.6875 -1 2.710938 -0.769531 2.765625 -0.625 C 2.816406 -0.488281 2.910156 -0.394531 3.046875 -0.34375 C 3.179688 -0.300781 3.398438 -0.28125 3.703125 -0.28125 L 4.609375 -0.28125 C 5.117188 -0.28125 5.507812 -0.347656 5.78125 -0.484375 C 6.050781 -0.628906 6.25 -0.851562 6.375 -1.15625 C 6.5 -1.457031 6.59375 -1.898438 6.65625 -2.484375 L 6.9375 -2.484375 C 6.914062 -2.265625 6.90625 -1.96875 6.90625 -1.59375 Z M 6.90625 -1.59375 "/></g></g></g><g fill="#004aad" fill-opacity="1"><g transform="translate(191.325566, 68.345079)"><g><path d="M 8.21875 -0.625 C 8.03125 -0.34375 7.835938 -0.140625 7.640625 -0.015625 C 7.453125 0.109375 7.203125 0.171875 6.890625 0.171875 C 6.546875 0.171875 6.265625 0.0703125 6.046875 -0.125 C 5.828125 -0.320312 5.660156 -0.671875 5.546875 -1.171875 L 5.28125 -2.421875 C 5.175781 -2.847656 5.082031 -3.175781 5 -3.40625 C 4.914062 -3.644531 4.785156 -3.832031 4.609375 -3.96875 C 4.429688 -4.113281 4.1875 -4.1875 3.875 -4.1875 L 2.6875 -4.1875 L 2.6875 -1.3125 C 2.6875 -1 2.710938 -0.769531 2.765625 -0.625 C 2.816406 -0.488281 2.910156 -0.394531 3.046875 -0.34375 C 3.179688 -0.300781 3.398438 -0.269531 3.703125 -0.25 L 3.703125 0 C 3.316406 -0.0195312 2.785156 -0.03125 2.109375 -0.03125 C 1.398438 -0.03125 0.867188 -0.0195312 0.515625 0 L 0.515625 -0.25 C 0.816406 -0.269531 1.035156 -0.300781 1.171875 -0.34375 C 1.304688 -0.394531 1.398438 -0.488281 1.453125 -0.625 C 1.503906 -0.769531 1.53125 -1 1.53125 -1.3125 L 1.53125 -7.5 C 1.53125 -7.8125 1.503906 -8.035156 1.453125 -8.171875 C 1.398438 -8.316406 1.304688 -8.414062 1.171875 -8.46875 C 1.035156 -8.519531 0.816406 -8.550781 0.515625 -8.5625 L 0.515625 -8.8125 C 0.867188 -8.789062 1.378906 -8.78125 2.046875 -8.78125 L 3.390625 -8.796875 C 3.546875 -8.796875 3.722656 -8.796875 3.921875 -8.796875 C 4.890625 -8.796875 5.628906 -8.59375 6.140625 -8.1875 C 6.660156 -7.789062 6.921875 -7.273438 6.921875 -6.640625 C 6.921875 -6.316406 6.84375 -5.988281 6.6875 -5.65625 C 6.539062 -5.332031 6.285156 -5.039062 5.921875 -4.78125 C 5.554688 -4.519531 5.085938 -4.34375 4.515625 -4.25 L 4.65625 -4.21875 C 5.207031 -4.125 5.601562 -3.957031 5.84375 -3.71875 C 6.09375 -3.476562 6.28125 -3.097656 6.40625 -2.578125 L 6.71875 -1.3125 C 6.800781 -0.925781 6.882812 -0.65625 6.96875 -0.5 C 7.0625 -0.351562 7.1875 -0.28125 7.34375 -0.28125 C 7.488281 -0.28125 7.609375 -0.316406 7.703125 -0.390625 C 7.796875 -0.472656 7.90625 -0.597656 8.03125 -0.765625 Z M 3.609375 -8.5625 C 3.347656 -8.5625 3.15625 -8.53125 3.03125 -8.46875 C 2.90625 -8.414062 2.816406 -8.3125 2.765625 -8.15625 C 2.710938 -8.007812 2.6875 -7.789062 2.6875 -7.5 L 2.6875 -4.4375 L 3.53125 -4.4375 C 4.34375 -4.4375 4.898438 -4.617188 5.203125 -4.984375 C 5.515625 -5.347656 5.671875 -5.851562 5.671875 -6.5 C 5.671875 -7.175781 5.507812 -7.6875 5.1875 -8.03125 C 4.863281 -8.382812 4.335938 -8.5625 3.609375 -8.5625 Z M 3.609375 -8.5625 "/></g></g></g><g fill="#004aad" fill-opacity="1"><g transform="translate(209.047187, 68.345079)"><g><path d="M 4.625 -8.984375 C 5.125 -8.984375 5.546875 -8.910156 5.890625 -8.765625 C 6.234375 -8.628906 6.570312 -8.4375 6.90625 -8.1875 C 7 -8.101562 7.078125 -8.0625 7.140625 -8.0625 C 7.304688 -8.0625 7.414062 -8.3125 7.46875 -8.8125 L 7.765625 -8.8125 C 7.722656 -8.269531 7.703125 -7.316406 7.703125 -5.953125 L 7.421875 -5.953125 C 7.328125 -6.492188 7.242188 -6.878906 7.171875 -7.109375 C 7.097656 -7.347656 6.972656 -7.578125 6.796875 -7.796875 C 6.546875 -8.117188 6.226562 -8.359375 5.84375 -8.515625 C 5.457031 -8.679688 5.039062 -8.765625 4.59375 -8.765625 C 4.050781 -8.765625 3.578125 -8.585938 3.171875 -8.234375 C 2.773438 -7.878906 2.460938 -7.367188 2.234375 -6.703125 C 2.015625 -6.046875 1.90625 -5.273438 1.90625 -4.390625 C 1.90625 -3.484375 2.023438 -2.703125 2.265625 -2.046875 C 2.503906 -1.398438 2.835938 -0.910156 3.265625 -0.578125 C 3.691406 -0.242188 4.175781 -0.078125 4.71875 -0.078125 C 5.132812 -0.078125 5.535156 -0.15625 5.921875 -0.3125 C 6.316406 -0.46875 6.625 -0.703125 6.84375 -1.015625 C 7.007812 -1.253906 7.128906 -1.503906 7.203125 -1.765625 C 7.285156 -2.035156 7.359375 -2.441406 7.421875 -2.984375 L 7.703125 -2.984375 C 7.703125 -1.554688 7.722656 -0.5625 7.765625 0 L 7.46875 0 C 7.445312 -0.269531 7.410156 -0.457031 7.359375 -0.5625 C 7.316406 -0.675781 7.253906 -0.734375 7.171875 -0.734375 C 7.109375 -0.734375 7.019531 -0.703125 6.90625 -0.640625 C 6.53125 -0.367188 6.171875 -0.164062 5.828125 -0.03125 C 5.492188 0.101562 5.085938 0.171875 4.609375 0.171875 C 3.816406 0.171875 3.125 -0.00390625 2.53125 -0.359375 C 1.9375 -0.710938 1.472656 -1.226562 1.140625 -1.90625 C 0.816406 -2.582031 0.65625 -3.390625 0.65625 -4.328125 C 0.65625 -5.242188 0.820312 -6.054688 1.15625 -6.765625 C 1.5 -7.472656 1.96875 -8.019531 2.5625 -8.40625 C 3.164062 -8.789062 3.851562 -8.984375 4.625 -8.984375 Z M 4.625 -8.984375 "/></g></g></g><g fill="#004aad" fill-opacity="1"><g transform="translate(227.266563, 68.345079)"><g><path d="M 6.90625 -1.59375 C 6.90625 -1.125 6.929688 -0.59375 6.984375 0 C 6.421875 -0.0195312 5.472656 -0.03125 4.140625 -0.03125 C 2.546875 -0.03125 1.335938 -0.0195312 0.515625 0 L 0.515625 -0.25 C 0.816406 -0.269531 1.035156 -0.300781 1.171875 -0.34375 C 1.304688 -0.394531 1.398438 -0.488281 1.453125 -0.625 C 1.503906 -0.769531 1.53125 -1 1.53125 -1.3125 L 1.53125 -7.5 C 1.53125 -7.8125 1.503906 -8.035156 1.453125 -8.171875 C 1.398438 -8.316406 1.304688 -8.414062 1.171875 -8.46875 C 1.035156 -8.519531 0.816406 -8.550781 0.515625 -8.5625 L 0.515625 -8.8125 C 1.335938 -8.789062 2.546875 -8.78125 4.140625 -8.78125 C 5.359375 -8.78125 6.222656 -8.789062 6.734375 -8.8125 C 6.679688 -8.269531 6.65625 -7.78125 6.65625 -7.34375 C 6.65625 -7.019531 6.664062 -6.765625 6.6875 -6.578125 L 6.40625 -6.578125 C 6.34375 -7.117188 6.265625 -7.519531 6.171875 -7.78125 C 6.085938 -8.039062 5.9375 -8.226562 5.71875 -8.34375 C 5.5 -8.46875 5.171875 -8.53125 4.734375 -8.53125 L 3.703125 -8.53125 C 3.398438 -8.53125 3.179688 -8.503906 3.046875 -8.453125 C 2.910156 -8.410156 2.816406 -8.316406 2.765625 -8.171875 C 2.710938 -8.035156 2.6875 -7.8125 2.6875 -7.5 L 2.6875 -4.5625 L 3.515625 -4.5625 C 3.804688 -4.5625 4.03125 -4.628906 4.1875 -4.765625 C 4.34375 -4.898438 4.445312 -5.0625 4.5 -5.25 C 4.550781 -5.4375 4.59375 -5.671875 4.625 -5.953125 L 4.671875 -6.203125 L 4.953125 -6.203125 C 4.929688 -5.847656 4.921875 -5.457031 4.921875 -5.03125 L 4.921875 -4.4375 C 4.921875 -4.007812 4.945312 -3.421875 5 -2.671875 L 4.703125 -2.671875 C 4.691406 -2.722656 4.664062 -2.921875 4.625 -3.265625 C 4.582031 -3.609375 4.46875 -3.867188 4.28125 -4.046875 C 4.101562 -4.222656 3.847656 -4.3125 3.515625 -4.3125 L 2.6875 -4.3125 L 2.6875 -1.3125 C 2.6875 -1 2.710938 -0.769531 2.765625 -0.625 C 2.816406 -0.488281 2.910156 -0.394531 3.046875 -0.34375 C 3.179688 -0.300781 3.398438 -0.28125 3.703125 -0.28125 L 4.609375 -0.28125 C 5.117188 -0.28125 5.507812 -0.347656 5.78125 -0.484375 C 6.050781 -0.628906 6.25 -0.851562 6.375 -1.15625 C 6.5 -1.457031 6.59375 -1.898438 6.65625 -2.484375 L 6.9375 -2.484375 C 6.914062 -2.265625 6.90625 -1.96875 6.90625 -1.59375 Z M 6.90625 -1.59375 "/></g></g></g><g fill="#004aad" fill-opacity="1"><g transform="translate(244.502864, 68.345079)"><g/></g></g><g fill="#004aad" fill-opacity="1"><g transform="translate(257.2593, 68.345079)"><g><path d="M 3.1875 -8.953125 C 3.550781 -8.953125 3.835938 -8.910156 4.046875 -8.828125 C 4.265625 -8.753906 4.484375 -8.644531 4.703125 -8.5 C 4.890625 -8.375 5.03125 -8.3125 5.125 -8.3125 C 5.207031 -8.3125 5.269531 -8.351562 5.3125 -8.4375 C 5.351562 -8.53125 5.382812 -8.671875 5.40625 -8.859375 L 5.6875 -8.859375 C 5.644531 -8.378906 5.625 -7.535156 5.625 -6.328125 L 5.34375 -6.328125 C 5.289062 -6.992188 5.097656 -7.554688 4.765625 -8.015625 C 4.429688 -8.484375 3.941406 -8.71875 3.296875 -8.71875 C 2.847656 -8.71875 2.484375 -8.582031 2.203125 -8.3125 C 1.921875 -8.039062 1.78125 -7.691406 1.78125 -7.265625 C 1.78125 -6.953125 1.851562 -6.679688 2 -6.453125 C 2.144531 -6.222656 2.328125 -6.023438 2.546875 -5.859375 C 2.773438 -5.691406 3.097656 -5.476562 3.515625 -5.21875 L 3.875 -5 C 4.394531 -4.675781 4.804688 -4.390625 5.109375 -4.140625 C 5.410156 -3.890625 5.648438 -3.609375 5.828125 -3.296875 C 6.015625 -2.984375 6.109375 -2.613281 6.109375 -2.1875 C 6.109375 -1.4375 5.859375 -0.851562 5.359375 -0.4375 C 4.867188 -0.03125 4.238281 0.171875 3.46875 0.171875 C 3.070312 0.171875 2.742188 0.128906 2.484375 0.046875 C 2.234375 -0.0351562 1.992188 -0.144531 1.765625 -0.28125 C 1.585938 -0.394531 1.445312 -0.453125 1.34375 -0.453125 C 1.269531 -0.453125 1.210938 -0.410156 1.171875 -0.328125 C 1.128906 -0.242188 1.097656 -0.101562 1.078125 0.09375 L 0.78125 0.09375 C 0.8125 -0.363281 0.828125 -1.363281 0.828125 -2.90625 L 1.125 -2.90625 C 1.175781 -2.0625 1.378906 -1.378906 1.734375 -0.859375 C 2.097656 -0.335938 2.648438 -0.078125 3.390625 -0.078125 C 3.835938 -0.078125 4.21875 -0.210938 4.53125 -0.484375 C 4.84375 -0.765625 5 -1.179688 5 -1.734375 C 5 -2.191406 4.84375 -2.582031 4.53125 -2.90625 C 4.226562 -3.238281 3.738281 -3.609375 3.0625 -4.015625 C 2.570312 -4.304688 2.175781 -4.566406 1.875 -4.796875 C 1.570312 -5.035156 1.320312 -5.316406 1.125 -5.640625 C 0.9375 -5.972656 0.84375 -6.359375 0.84375 -6.796875 C 0.84375 -7.492188 1.066406 -8.023438 1.515625 -8.390625 C 1.960938 -8.765625 2.519531 -8.953125 3.1875 -8.953125 Z M 3.1875 -8.953125 "/></g></g></g><g fill="#004aad" fill-opacity="1"><g transform="translate(273.63696, 68.345079)"><g><path d="M 7.375 -8.8125 C 7.3125 -8.226562 7.28125 -7.695312 7.28125 -7.21875 C 7.28125 -6.800781 7.296875 -6.460938 7.328125 -6.203125 L 7.03125 -6.203125 C 6.96875 -6.835938 6.882812 -7.3125 6.78125 -7.625 C 6.6875 -7.9375 6.515625 -8.164062 6.265625 -8.3125 C 6.015625 -8.457031 5.632812 -8.53125 5.125 -8.53125 L 4.453125 -8.53125 L 4.453125 -1.4375 C 4.453125 -1.09375 4.484375 -0.84375 4.546875 -0.6875 C 4.609375 -0.53125 4.722656 -0.421875 4.890625 -0.359375 C 5.054688 -0.304688 5.328125 -0.269531 5.703125 -0.25 L 5.703125 0 C 5.273438 -0.0195312 4.664062 -0.03125 3.875 -0.03125 C 3.039062 -0.03125 2.425781 -0.0195312 2.03125 0 L 2.03125 -0.25 C 2.40625 -0.269531 2.675781 -0.304688 2.84375 -0.359375 C 3.007812 -0.421875 3.125 -0.53125 3.1875 -0.6875 C 3.25 -0.84375 3.28125 -1.09375 3.28125 -1.4375 L 3.28125 -8.53125 L 2.609375 -8.53125 C 2.097656 -8.53125 1.71875 -8.457031 1.46875 -8.3125 C 1.21875 -8.164062 1.039062 -7.9375 0.9375 -7.625 C 0.84375 -7.3125 0.765625 -6.835938 0.703125 -6.203125 L 0.40625 -6.203125 C 0.4375 -6.460938 0.453125 -6.800781 0.453125 -7.21875 C 0.453125 -7.695312 0.421875 -8.226562 0.359375 -8.8125 C 1.046875 -8.789062 2.21875 -8.78125 3.875 -8.78125 C 5.519531 -8.78125 6.6875 -8.789062 7.375 -8.8125 Z M 7.375 -8.8125 "/></g></g></g><g fill="#004aad" fill-opacity="1"><g transform="translate(291.02258, 68.345079)"><g><path d="M 8.15625 -8.5625 C 7.863281 -8.550781 7.644531 -8.507812 7.5 -8.4375 C 7.363281 -8.363281 7.269531 -8.242188 7.21875 -8.078125 C 7.164062 -7.921875 7.140625 -7.6875 7.140625 -7.375 L 7.140625 -3.625 C 7.140625 -3.03125 7.097656 -2.515625 7.015625 -2.078125 C 6.941406 -1.648438 6.816406 -1.285156 6.640625 -0.984375 C 6.429688 -0.628906 6.125 -0.347656 5.71875 -0.140625 C 5.320312 0.0664062 4.867188 0.171875 4.359375 0.171875 C 3.441406 0.171875 2.742188 -0.0507812 2.265625 -0.5 C 1.898438 -0.84375 1.65625 -1.226562 1.53125 -1.65625 C 1.40625 -2.082031 1.34375 -2.726562 1.34375 -3.59375 L 1.34375 -7.5 C 1.34375 -7.8125 1.316406 -8.035156 1.265625 -8.171875 C 1.222656 -8.316406 1.128906 -8.414062 0.984375 -8.46875 C 0.847656 -8.519531 0.632812 -8.550781 0.34375 -8.5625 L 0.34375 -8.8125 C 0.6875 -8.789062 1.21875 -8.78125 1.9375 -8.78125 C 2.601562 -8.78125 3.128906 -8.789062 3.515625 -8.8125 L 3.515625 -8.5625 C 3.210938 -8.550781 2.992188 -8.519531 2.859375 -8.46875 C 2.722656 -8.414062 2.628906 -8.316406 2.578125 -8.171875 C 2.523438 -8.035156 2.5 -7.8125 2.5 -7.5 L 2.5 -3.375 C 2.5 -2.707031 2.546875 -2.15625 2.640625 -1.71875 C 2.734375 -1.28125 2.921875 -0.925781 3.203125 -0.65625 C 3.492188 -0.394531 3.914062 -0.265625 4.46875 -0.265625 C 5.351562 -0.265625 5.972656 -0.546875 6.328125 -1.109375 C 6.679688 -1.671875 6.859375 -2.460938 6.859375 -3.484375 L 6.859375 -7.375 C 6.859375 -7.820312 6.773438 -8.128906 6.609375 -8.296875 C 6.453125 -8.460938 6.160156 -8.550781 5.734375 -8.5625 L 5.734375 -8.8125 C 6.023438 -8.789062 6.445312 -8.78125 7 -8.78125 C 7.5 -8.78125 7.882812 -8.789062 8.15625 -8.8125 Z M 8.15625 -8.5625 "/></g></g></g><g fill="#004aad" fill-opacity="1"><g transform="translate(309.167297, 68.345079)"><g><path d="M 3.921875 -8.8125 C 5.390625 -8.8125 6.488281 -8.441406 7.21875 -7.703125 C 7.945312 -6.972656 8.3125 -5.910156 8.3125 -4.515625 C 8.3125 -3.609375 8.132812 -2.8125 7.78125 -2.125 C 7.425781 -1.445312 6.910156 -0.921875 6.234375 -0.546875 C 5.554688 -0.179688 4.75 0 3.8125 0 L 3.09375 -0.015625 C 2.625 -0.0234375 2.28125 -0.03125 2.0625 -0.03125 C 1.382812 -0.03125 0.867188 -0.0195312 0.515625 0 L 0.515625 -0.25 C 0.816406 -0.269531 1.035156 -0.300781 1.171875 -0.34375 C 1.304688 -0.394531 1.398438 -0.488281 1.453125 -0.625 C 1.503906 -0.769531 1.53125 -1 1.53125 -1.3125 L 1.53125 -7.5 C 1.53125 -7.8125 1.503906 -8.035156 1.453125 -8.171875 C 1.398438 -8.316406 1.304688 -8.414062 1.171875 -8.46875 C 1.035156 -8.519531 0.816406 -8.550781 0.515625 -8.5625 L 0.515625 -8.8125 C 0.804688 -8.789062 1.210938 -8.78125 1.734375 -8.78125 L 2.796875 -8.796875 C 3.359375 -8.804688 3.734375 -8.8125 3.921875 -8.8125 Z M 3.609375 -8.59375 C 3.347656 -8.59375 3.15625 -8.5625 3.03125 -8.5 C 2.90625 -8.445312 2.816406 -8.34375 2.765625 -8.1875 C 2.710938 -8.039062 2.6875 -7.816406 2.6875 -7.515625 L 2.6875 -1.296875 C 2.6875 -0.992188 2.710938 -0.769531 2.765625 -0.625 C 2.816406 -0.476562 2.90625 -0.375 3.03125 -0.3125 C 3.15625 -0.25 3.351562 -0.21875 3.625 -0.21875 C 4.5 -0.21875 5.191406 -0.378906 5.703125 -0.703125 C 6.210938 -1.023438 6.566406 -1.492188 6.765625 -2.109375 C 6.972656 -2.722656 7.078125 -3.503906 7.078125 -4.453125 C 7.078125 -5.410156 6.960938 -6.191406 6.734375 -6.796875 C 6.515625 -7.398438 6.148438 -7.847656 5.640625 -8.140625 C 5.140625 -8.441406 4.460938 -8.59375 3.609375 -8.59375 Z M 3.609375 -8.59375 "/></g></g></g><g fill="#004aad" fill-opacity="1"><g transform="translate(327.822219, 68.345079)"><g><path d="M 6.90625 -1.59375 C 6.90625 -1.125 6.929688 -0.59375 6.984375 0 C 6.421875 -0.0195312 5.472656 -0.03125 4.140625 -0.03125 C 2.546875 -0.03125 1.335938 -0.0195312 0.515625 0 L 0.515625 -0.25 C 0.816406 -0.269531 1.035156 -0.300781 1.171875 -0.34375 C 1.304688 -0.394531 1.398438 -0.488281 1.453125 -0.625 C 1.503906 -0.769531 1.53125 -1 1.53125 -1.3125 L 1.53125 -7.5 C 1.53125 -7.8125 1.503906 -8.035156 1.453125 -8.171875 C 1.398438 -8.316406 1.304688 -8.414062 1.171875 -8.46875 C 1.035156 -8.519531 0.816406 -8.550781 0.515625 -8.5625 L 0.515625 -8.8125 C 1.335938 -8.789062 2.546875 -8.78125 4.140625 -8.78125 C 5.359375 -8.78125 6.222656 -8.789062 6.734375 -8.8125 C 6.679688 -8.269531 6.65625 -7.78125 6.65625 -7.34375 C 6.65625 -7.019531 6.664062 -6.765625 6.6875 -6.578125 L 6.40625 -6.578125 C 6.34375 -7.117188 6.265625 -7.519531 6.171875 -7.78125 C 6.085938 -8.039062 5.9375 -8.226562 5.71875 -8.34375 C 5.5 -8.46875 5.171875 -8.53125 4.734375 -8.53125 L 3.703125 -8.53125 C 3.398438 -8.53125 3.179688 -8.503906 3.046875 -8.453125 C 2.910156 -8.410156 2.816406 -8.316406 2.765625 -8.171875 C 2.710938 -8.035156 2.6875 -7.8125 2.6875 -7.5 L 2.6875 -4.5625 L 3.515625 -4.5625 C 3.804688 -4.5625 4.03125 -4.628906 4.1875 -4.765625 C 4.34375 -4.898438 4.445312 -5.0625 4.5 -5.25 C 4.550781 -5.4375 4.59375 -5.671875 4.625 -5.953125 L 4.671875 -6.203125 L 4.953125 -6.203125 C 4.929688 -5.847656 4.921875 -5.457031 4.921875 -5.03125 L 4.921875 -4.4375 C 4.921875 -4.007812 4.945312 -3.421875 5 -2.671875 L 4.703125 -2.671875 C 4.691406 -2.722656 4.664062 -2.921875 4.625 -3.265625 C 4.582031 -3.609375 4.46875 -3.867188 4.28125 -4.046875 C 4.101562 -4.222656 3.847656 -4.3125 3.515625 -4.3125 L 2.6875 -4.3125 L 2.6875 -1.3125 C 2.6875 -1 2.710938 -0.769531 2.765625 -0.625 C 2.816406 -0.488281 2.910156 -0.394531 3.046875 -0.34375 C 3.179688 -0.300781 3.398438 -0.28125 3.703125 -0.28125 L 4.609375 -0.28125 C 5.117188 -0.28125 5.507812 -0.347656 5.78125 -0.484375 C 6.050781 -0.628906 6.25 -0.851562 6.375 -1.15625 C 6.5 -1.457031 6.59375 -1.898438 6.65625 -2.484375 L 6.9375 -2.484375 C 6.914062 -2.265625 6.90625 -1.96875 6.90625 -1.59375 Z M 6.90625 -1.59375 "/></g></g></g><g fill="#004aad" fill-opacity="1"><g transform="translate(345.058535, 68.345079)"><g><path d="M 8.34375 -8.5625 C 8.050781 -8.550781 7.832031 -8.507812 7.6875 -8.4375 C 7.550781 -8.363281 7.457031 -8.242188 7.40625 -8.078125 C 7.351562 -7.921875 7.328125 -7.6875 7.328125 -7.375 L 7.328125 0.0625 L 7.046875 0.0625 L 1.8125 -8.015625 L 1.8125 -1.4375 C 1.8125 -1.113281 1.835938 -0.875 1.890625 -0.71875 C 1.953125 -0.5625 2.0625 -0.445312 2.21875 -0.375 C 2.375 -0.3125 2.617188 -0.269531 2.953125 -0.25 L 2.953125 0 C 2.648438 -0.0195312 2.226562 -0.03125 1.6875 -0.03125 C 1.1875 -0.03125 0.796875 -0.0195312 0.515625 0 L 0.515625 -0.25 C 0.804688 -0.269531 1.019531 -0.3125 1.15625 -0.375 C 1.300781 -0.445312 1.398438 -0.5625 1.453125 -0.71875 C 1.503906 -0.882812 1.53125 -1.125 1.53125 -1.4375 L 1.53125 -7.5 C 1.53125 -7.8125 1.503906 -8.035156 1.453125 -8.171875 C 1.398438 -8.316406 1.304688 -8.414062 1.171875 -8.46875 C 1.035156 -8.519531 0.816406 -8.550781 0.515625 -8.5625 L 0.515625 -8.8125 C 0.796875 -8.789062 1.1875 -8.78125 1.6875 -8.78125 C 2.050781 -8.78125 2.375 -8.789062 2.65625 -8.8125 L 7.046875 -2.046875 L 7.046875 -7.375 C 7.046875 -7.695312 7.019531 -7.9375 6.96875 -8.09375 C 6.914062 -8.25 6.804688 -8.363281 6.640625 -8.4375 C 6.484375 -8.507812 6.242188 -8.550781 5.921875 -8.5625 L 5.921875 -8.8125 C 6.210938 -8.789062 6.632812 -8.78125 7.1875 -8.78125 C 7.6875 -8.78125 8.070312 -8.789062 8.34375 -8.8125 Z M 8.34375 -8.5625 "/></g></g></g><g fill="#004aad" fill-opacity="1"><g transform="translate(363.501902, 68.345079)"><g><path d="M 7.375 -8.8125 C 7.3125 -8.226562 7.28125 -7.695312 7.28125 -7.21875 C 7.28125 -6.800781 7.296875 -6.460938 7.328125 -6.203125 L 7.03125 -6.203125 C 6.96875 -6.835938 6.882812 -7.3125 6.78125 -7.625 C 6.6875 -7.9375 6.515625 -8.164062 6.265625 -8.3125 C 6.015625 -8.457031 5.632812 -8.53125 5.125 -8.53125 L 4.453125 -8.53125 L 4.453125 -1.4375 C 4.453125 -1.09375 4.484375 -0.84375 4.546875 -0.6875 C 4.609375 -0.53125 4.722656 -0.421875 4.890625 -0.359375 C 5.054688 -0.304688 5.328125 -0.269531 5.703125 -0.25 L 5.703125 0 C 5.273438 -0.0195312 4.664062 -0.03125 3.875 -0.03125 C 3.039062 -0.03125 2.425781 -0.0195312 2.03125 0 L 2.03125 -0.25 C 2.40625 -0.269531 2.675781 -0.304688 2.84375 -0.359375 C 3.007812 -0.421875 3.125 -0.53125 3.1875 -0.6875 C 3.25 -0.84375 3.28125 -1.09375 3.28125 -1.4375 L 3.28125 -8.53125 L 2.609375 -8.53125 C 2.097656 -8.53125 1.71875 -8.457031 1.46875 -8.3125 C 1.21875 -8.164062 1.039062 -7.9375 0.9375 -7.625 C 0.84375 -7.3125 0.765625 -6.835938 0.703125 -6.203125 L 0.40625 -6.203125 C 0.4375 -6.460938 0.453125 -6.800781 0.453125 -7.21875 C 0.453125 -7.695312 0.421875 -8.226562 0.359375 -8.8125 C 1.046875 -8.789062 2.21875 -8.78125 3.875 -8.78125 C 5.519531 -8.78125 6.6875 -8.789062 7.375 -8.8125 Z M 7.375 -8.8125 "/></g></g></g><g fill="#004aad" fill-opacity="1"><g transform="translate(6.459785, 40.98729)"><g><path d="M 14.71875 -25.671875 C 16.144531 -25.671875 17.351562 -25.46875 18.34375 -25.0625 C 19.34375 -24.664062 20.316406 -24.097656 21.265625 -23.359375 C 21.503906 -23.148438 21.726562 -23.046875 21.9375 -23.046875 C 22.414062 -23.046875 22.722656 -23.753906 22.859375 -25.171875 L 23.6875 -25.171875 C 23.59375 -23.492188 23.546875 -20.53125 23.546875 -16.28125 L 22.71875 -16.28125 C 22.550781 -18.175781 22.242188 -19.671875 21.796875 -20.765625 C 21.347656 -21.859375 20.566406 -22.769531 19.453125 -23.5 C 18.335938 -24.21875 17.234375 -24.578125 16.140625 -24.578125 C 13.679688 -24.578125 11.953125 -23.390625 10.953125 -21.015625 C 9.953125 -18.648438 9.453125 -15.816406 9.453125 -12.515625 C 9.453125 -9.222656 9.953125 -6.390625 10.953125 -4.015625 C 11.953125 -1.648438 13.679688 -0.46875 16.140625 -0.46875 C 17.234375 -0.46875 18.335938 -0.820312 19.453125 -1.53125 C 20.566406 -2.21875 21.347656 -3.140625 21.796875 -4.296875 C 22.242188 -5.460938 22.550781 -7.113281 22.71875 -9.25 L 23.546875 -9.25 C 23.546875 -4.8125 23.59375 -1.726562 23.6875 0 L 22.859375 0 C 22.796875 -0.757812 22.695312 -1.296875 22.5625 -1.609375 C 22.4375 -1.929688 22.253906 -2.09375 22.015625 -2.09375 C 21.828125 -2.09375 21.578125 -2 21.265625 -1.8125 C 20.203125 -1.050781 19.179688 -0.472656 18.203125 -0.078125 C 17.234375 0.304688 16.0625 0.5 14.6875 0.5 C 12.007812 0.5 9.660156 -0.0078125 7.640625 -1.03125 C 5.628906 -2.050781 4.066406 -3.523438 2.953125 -5.453125 C 1.835938 -7.390625 1.28125 -9.695312 1.28125 -12.375 C 1.28125 -14.976562 1.847656 -17.285156 2.984375 -19.296875 C 4.117188 -21.316406 5.707031 -22.882812 7.75 -24 C 9.789062 -25.113281 12.113281 -25.671875 14.71875 -25.671875 Z M 14.71875 -25.671875 "/></g></g></g><g fill="#004aad" fill-opacity="1"><g transform="translate(32.835496, 40.98729)"><g><path d="M 28.484375 -24.46875 C 27.722656 -24.414062 27.171875 -24.316406 26.828125 -24.171875 C 26.484375 -24.035156 26.25 -23.765625 26.125 -23.359375 C 26.007812 -22.960938 25.953125 -22.3125 25.953125 -21.40625 L 25.953125 -3.765625 C 25.953125 -2.867188 26.019531 -2.21875 26.15625 -1.8125 C 26.289062 -1.40625 26.519531 -1.128906 26.84375 -0.984375 C 27.175781 -0.847656 27.722656 -0.757812 28.484375 -0.71875 L 28.484375 0 C 27.203125 -0.0703125 25.210938 -0.109375 22.515625 -0.109375 C 19.785156 -0.109375 17.6875 -0.0703125 16.21875 0 L 16.21875 -0.71875 C 16.976562 -0.757812 17.53125 -0.847656 17.875 -0.984375 C 18.21875 -1.128906 18.445312 -1.40625 18.5625 -1.8125 C 18.675781 -2.21875 18.734375 -2.867188 18.734375 -3.765625 L 18.734375 -12.296875 L 10.734375 -12.296875 L 10.734375 -3.765625 C 10.734375 -2.867188 10.796875 -2.21875 10.921875 -1.8125 C 11.054688 -1.40625 11.289062 -1.128906 11.625 -0.984375 C 11.957031 -0.847656 12.503906 -0.757812 13.265625 -0.71875 L 13.265625 0 C 11.890625 -0.0703125 9.910156 -0.109375 7.328125 -0.109375 C 4.453125 -0.109375 2.34375 -0.0703125 1 0 L 1 -0.71875 C 1.757812 -0.757812 2.3125 -0.847656 2.65625 -0.984375 C 3 -1.128906 3.226562 -1.40625 3.34375 -1.8125 C 3.457031 -2.21875 3.515625 -2.867188 3.515625 -3.765625 L 3.515625 -21.40625 C 3.515625 -22.3125 3.445312 -22.960938 3.3125 -23.359375 C 3.1875 -23.765625 2.957031 -24.035156 2.625 -24.171875 C 2.300781 -24.316406 1.757812 -24.414062 1 -24.46875 L 1 -25.171875 C 2.34375 -25.109375 4.453125 -25.078125 7.328125 -25.078125 C 9.890625 -25.078125 11.867188 -25.109375 13.265625 -25.171875 L 13.265625 -24.46875 C 12.503906 -24.414062 11.953125 -24.316406 11.609375 -24.171875 C 11.265625 -24.035156 11.03125 -23.765625 10.90625 -23.359375 C 10.789062 -22.960938 10.734375 -22.3125 10.734375 -21.40625 L 10.734375 -13.015625 L 18.734375 -13.015625 L 18.734375 -21.40625 C 18.734375 -22.3125 18.664062 -22.960938 18.53125 -23.359375 C 18.40625 -23.765625 18.175781 -24.035156 17.84375 -24.171875 C 17.519531 -24.316406 16.976562 -24.414062 16.21875 -24.46875 L 16.21875 -25.171875 C 17.6875 -25.109375 19.785156 -25.078125 22.515625 -25.078125 C 25.210938 -25.078125 27.203125 -25.109375 28.484375 -25.171875 Z M 28.484375 -24.46875 "/></g></g></g><g fill="#004aad" fill-opacity="1"><g transform="translate(63.192397, 40.98729)"><g><path d="M 26.53125 -1.421875 C 25.820312 -0.710938 25.039062 -0.21875 24.1875 0.0625 C 23.332031 0.351562 22.332031 0.5 21.1875 0.5 C 19.550781 0.5 18.28125 0.207031 17.375 -0.375 C 16.476562 -0.957031 15.925781 -1.945312 15.71875 -3.34375 L 15.1875 -6.90625 C 14.945312 -8.5625 14.617188 -9.816406 14.203125 -10.671875 C 13.785156 -11.523438 13.164062 -11.953125 12.34375 -11.953125 L 10.734375 -11.953125 L 10.734375 -3.765625 C 10.734375 -2.867188 10.796875 -2.21875 10.921875 -1.8125 C 11.054688 -1.40625 11.289062 -1.128906 11.625 -0.984375 C 11.957031 -0.847656 12.503906 -0.757812 13.265625 -0.71875 L 13.265625 0 C 11.890625 -0.0703125 9.910156 -0.109375 7.328125 -0.109375 C 4.453125 -0.109375 2.34375 -0.0703125 1 0 L 1 -0.71875 C 1.757812 -0.757812 2.3125 -0.847656 2.65625 -0.984375 C 3 -1.128906 3.226562 -1.40625 3.34375 -1.8125 C 3.457031 -2.21875 3.515625 -2.867188 3.515625 -3.765625 L 3.515625 -21.40625 C 3.515625 -22.3125 3.445312 -22.960938 3.3125 -23.359375 C 3.1875 -23.765625 2.957031 -24.035156 2.625 -24.171875 C 2.300781 -24.316406 1.757812 -24.414062 1 -24.46875 L 1 -25.171875 C 2.34375 -25.109375 4.378906 -25.078125 7.109375 -25.078125 L 11.203125 -25.109375 C 11.671875 -25.128906 12.21875 -25.140625 12.84375 -25.140625 C 16.445312 -25.140625 19.128906 -24.628906 20.890625 -23.609375 C 22.660156 -22.585938 23.546875 -21.035156 23.546875 -18.953125 C 23.546875 -17.171875 22.878906 -15.648438 21.546875 -14.390625 C 20.222656 -13.140625 17.992188 -12.375 14.859375 -12.09375 C 17.285156 -11.925781 19.113281 -11.46875 20.34375 -10.71875 C 21.570312 -9.976562 22.332031 -8.882812 22.625 -7.4375 L 23.359375 -3.734375 C 23.523438 -2.859375 23.726562 -2.253906 23.96875 -1.921875 C 24.207031 -1.585938 24.539062 -1.421875 24.96875 -1.421875 C 25.394531 -1.421875 25.757812 -1.578125 26.0625 -1.890625 Z M 12.65625 -24.46875 C 12.113281 -24.46875 11.707031 -24.382812 11.4375 -24.21875 C 11.164062 -24.050781 10.976562 -23.753906 10.875 -23.328125 C 10.78125 -22.898438 10.734375 -22.257812 10.734375 -21.40625 L 10.734375 -12.65625 L 11.703125 -12.65625 C 13.378906 -12.65625 14.523438 -13.171875 15.140625 -14.203125 C 15.765625 -15.234375 16.078125 -16.6875 16.078125 -18.5625 C 16.078125 -20.507812 15.804688 -21.976562 15.265625 -22.96875 C 14.734375 -23.96875 13.863281 -24.46875 12.65625 -24.46875 Z M 12.65625 -24.46875 "/></g></g></g><g fill="#004aad" fill-opacity="1"><g transform="translate(89.710294, 40.98729)"><g><path d="M 13.265625 -24.46875 C 12.503906 -24.414062 11.953125 -24.316406 11.609375 -24.171875 C 11.265625 -24.035156 11.03125 -23.765625 10.90625 -23.359375 C 10.789062 -22.960938 10.734375 -22.3125 10.734375 -21.40625 L 10.734375 -3.765625 C 10.734375 -2.867188 10.796875 -2.21875 10.921875 -1.8125 C 11.054688 -1.40625 11.289062 -1.128906 11.625 -0.984375 C 11.957031 -0.847656 12.503906 -0.757812 13.265625 -0.71875 L 13.265625 0 C 11.890625 -0.0703125 9.910156 -0.109375 7.328125 -0.109375 C 4.453125 -0.109375 2.34375 -0.0703125 1 0 L 1 -0.71875 C 1.757812 -0.757812 2.3125 -0.847656 2.65625 -0.984375 C 3 -1.128906 3.226562 -1.40625 3.34375 -1.8125 C 3.457031 -2.21875 3.515625 -2.867188 3.515625 -3.765625 L 3.515625 -21.40625 C 3.515625 -22.3125 3.445312 -22.960938 3.3125 -23.359375 C 3.1875 -23.765625 2.957031 -24.035156 2.625 -24.171875 C 2.300781 -24.316406 1.757812 -24.414062 1 -24.46875 L 1 -25.171875 C 2.34375 -25.109375 4.453125 -25.078125 7.328125 -25.078125 C 9.890625 -25.078125 11.867188 -25.109375 13.265625 -25.171875 Z M 13.265625 -24.46875 "/></g></g></g><g fill="#004aad" fill-opacity="1"><g transform="translate(104.853365, 40.98729)"><g><path d="M 10.734375 -25.671875 C 12.085938 -25.671875 13.1875 -25.546875 14.03125 -25.296875 C 14.875 -25.046875 15.695312 -24.695312 16.5 -24.25 C 16.757812 -24.113281 16.988281 -23.992188 17.1875 -23.890625 C 17.394531 -23.796875 17.566406 -23.75 17.703125 -23.75 C 17.921875 -23.75 18.085938 -23.875 18.203125 -24.125 C 18.328125 -24.375 18.425781 -24.773438 18.5 -25.328125 L 19.3125 -25.328125 C 19.1875 -23.617188 19.125 -20.722656 19.125 -16.640625 L 18.3125 -16.640625 C 18.21875 -17.992188 17.910156 -19.285156 17.390625 -20.515625 C 16.867188 -21.753906 16.15625 -22.765625 15.25 -23.546875 C 14.351562 -24.328125 13.3125 -24.71875 12.125 -24.71875 C 11.03125 -24.71875 10.148438 -24.425781 9.484375 -23.84375 C 8.828125 -23.257812 8.5 -22.445312 8.5 -21.40625 C 8.5 -20.601562 8.675781 -19.90625 9.03125 -19.3125 C 9.382812 -18.71875 9.90625 -18.140625 10.59375 -17.578125 C 11.28125 -17.023438 12.40625 -16.203125 13.96875 -15.109375 C 14.113281 -15.035156 14.25 -14.953125 14.375 -14.859375 C 14.507812 -14.765625 14.640625 -14.671875 14.765625 -14.578125 C 16.066406 -13.679688 17.109375 -12.878906 17.890625 -12.171875 C 18.671875 -11.472656 19.300781 -10.660156 19.78125 -9.734375 C 20.269531 -8.816406 20.515625 -7.753906 20.515625 -6.546875 C 20.515625 -5.003906 20.082031 -3.703125 19.21875 -2.640625 C 18.351562 -1.585938 17.1875 -0.800781 15.71875 -0.28125 C 14.25 0.238281 12.625 0.5 10.84375 0.5 C 9.394531 0.5 8.191406 0.378906 7.234375 0.140625 C 6.273438 -0.0976562 5.378906 -0.414062 4.546875 -0.8125 C 4.023438 -1.144531 3.625 -1.3125 3.34375 -1.3125 C 3.125 -1.3125 2.957031 -1.1875 2.84375 -0.9375 C 2.726562 -0.6875 2.632812 -0.289062 2.5625 0.25 L 1.75 0.25 C 1.84375 -1.363281 1.890625 -4.800781 1.890625 -10.0625 L 2.703125 -10.0625 C 2.867188 -7.238281 3.460938 -4.945312 4.484375 -3.1875 C 5.503906 -1.4375 7.066406 -0.5625 9.171875 -0.5625 C 10.472656 -0.5625 11.507812 -0.867188 12.28125 -1.484375 C 13.050781 -2.109375 13.4375 -2.960938 13.4375 -4.046875 C 13.4375 -5.398438 13.015625 -6.554688 12.171875 -7.515625 C 11.335938 -8.484375 10.03125 -9.554688 8.25 -10.734375 C 6.820312 -11.679688 5.679688 -12.507812 4.828125 -13.21875 C 3.984375 -13.9375 3.285156 -14.765625 2.734375 -15.703125 C 2.191406 -16.640625 1.921875 -17.722656 1.921875 -18.953125 C 1.921875 -20.441406 2.320312 -21.691406 3.125 -22.703125 C 3.9375 -23.710938 5.007812 -24.457031 6.34375 -24.9375 C 7.6875 -25.425781 9.148438 -25.671875 10.734375 -25.671875 Z M 10.734375 -25.671875 "/></g></g></g><g fill="#004aad" fill-opacity="1"><g transform="translate(127.532258, 40.98729)"><g><path d="M 24.046875 -25.171875 C 23.878906 -22.546875 23.796875 -20.203125 23.796875 -18.140625 C 23.796875 -17.046875 23.828125 -16.191406 23.890625 -15.578125 L 23.078125 -15.578125 C 22.296875 -18.679688 21.285156 -20.921875 20.046875 -22.296875 C 18.816406 -23.671875 17.492188 -24.359375 16.078125 -24.359375 L 16.03125 -24.359375 L 16.03125 -4.015625 C 16.03125 -3.023438 16.128906 -2.300781 16.328125 -1.84375 C 16.535156 -1.394531 16.90625 -1.09375 17.4375 -0.9375 C 17.976562 -0.789062 18.828125 -0.71875 19.984375 -0.71875 L 19.984375 0 C 16.640625 -0.0703125 14.046875 -0.109375 12.203125 -0.109375 C 10.515625 -0.109375 8.070312 -0.0703125 4.875 0 L 4.875 -0.71875 C 6.03125 -0.71875 6.875 -0.789062 7.40625 -0.9375 C 7.945312 -1.09375 8.316406 -1.394531 8.515625 -1.84375 C 8.710938 -2.300781 8.8125 -3.023438 8.8125 -4.015625 L 8.8125 -24.359375 L 8.78125 -24.359375 C 7.332031 -24.359375 6 -23.675781 4.78125 -22.3125 C 3.5625 -20.945312 2.5625 -18.703125 1.78125 -15.578125 L 0.953125 -15.578125 C 1.023438 -16.191406 1.0625 -17.046875 1.0625 -18.140625 C 1.0625 -20.203125 0.976562 -22.546875 0.8125 -25.171875 C 3.070312 -25.109375 6.953125 -25.078125 12.453125 -25.078125 C 17.921875 -25.078125 21.785156 -25.109375 24.046875 -25.171875 Z M 24.046875 -25.171875 "/></g></g></g><g fill="#004aad" fill-opacity="1"><g transform="translate(153.268128, 40.98729)"><g><path d="M 13.265625 -24.46875 C 12.503906 -24.414062 11.953125 -24.316406 11.609375 -24.171875 C 11.265625 -24.035156 11.03125 -23.765625 10.90625 -23.359375 C 10.789062 -22.960938 10.734375 -22.3125 10.734375 -21.40625 L 10.734375 -3.765625 C 10.734375 -2.867188 10.796875 -2.21875 10.921875 -1.8125 C 11.054688 -1.40625 11.289062 -1.128906 11.625 -0.984375 C 11.957031 -0.847656 12.503906 -0.757812 13.265625 -0.71875 L 13.265625 0 C 11.890625 -0.0703125 9.910156 -0.109375 7.328125 -0.109375 C 4.453125 -0.109375 2.34375 -0.0703125 1 0 L 1 -0.71875 C 1.757812 -0.757812 2.3125 -0.847656 2.65625 -0.984375 C 3 -1.128906 3.226562 -1.40625 3.34375 -1.8125 C 3.457031 -2.21875 3.515625 -2.867188 3.515625 -3.765625 L 3.515625 -21.40625 C 3.515625 -22.3125 3.445312 -22.960938 3.3125 -23.359375 C 3.1875 -23.765625 2.957031 -24.035156 2.625 -24.171875 C 2.300781 -24.316406 1.757812 -24.414062 1 -24.46875 L 1 -25.171875 C 2.34375 -25.109375 4.453125 -25.078125 7.328125 -25.078125 C 9.890625 -25.078125 11.867188 -25.109375 13.265625 -25.171875 Z M 13.265625 -24.46875 "/></g></g></g><g fill="#004aad" fill-opacity="1"><g transform="translate(168.411199, 40.98729)"><g><path d="M 22.765625 -2.984375 C 23.066406 -2.222656 23.398438 -1.660156 23.765625 -1.296875 C 24.140625 -0.929688 24.503906 -0.738281 24.859375 -0.71875 L 24.859375 0 C 23.148438 -0.0703125 20.992188 -0.109375 18.390625 -0.109375 C 15.679688 -0.109375 13.6875 -0.0703125 12.40625 0 L 12.40625 -0.71875 C 13.3125 -0.757812 13.953125 -0.867188 14.328125 -1.046875 C 14.710938 -1.222656 14.90625 -1.535156 14.90625 -1.984375 C 14.90625 -2.410156 14.757812 -2.984375 14.46875 -3.703125 L 12.375 -9.53125 L 5.1875 -9.53125 L 4.59375 -7.9375 C 3.800781 -5.914062 3.40625 -4.375 3.40625 -3.3125 C 3.40625 -2.332031 3.675781 -1.664062 4.21875 -1.3125 C 4.769531 -0.957031 5.582031 -0.757812 6.65625 -0.71875 L 6.65625 0 C 4.875 -0.0703125 3.316406 -0.109375 1.984375 -0.109375 C 0.867188 -0.109375 -0.0390625 -0.0703125 -0.75 0 L -0.75 -0.71875 C -0.15625 -0.8125 0.398438 -1.175781 0.921875 -1.8125 C 1.441406 -2.457031 1.976562 -3.476562 2.53125 -4.875 L 10.421875 -25.171875 C 11.179688 -25.128906 11.804688 -25.109375 12.296875 -25.109375 C 12.773438 -25.109375 13.394531 -25.128906 14.15625 -25.171875 Z M 12.125 -10.234375 L 8.890625 -19.125 L 5.484375 -10.234375 Z M 12.125 -10.234375 "/></g></g></g><g fill="#004aad" fill-opacity="1"><g transform="translate(193.898249, 40.98729)"><g><path d="M 25.171875 -24.46875 C 24.441406 -24.300781 23.898438 -24.046875 23.546875 -23.703125 C 23.191406 -23.359375 22.953125 -22.828125 22.828125 -22.109375 C 22.710938 -21.398438 22.65625 -20.335938 22.65625 -18.921875 L 22.65625 0 C 22.175781 -0.0507812 21.785156 -0.078125 21.484375 -0.078125 C 21.222656 -0.078125 20.78125 -0.0507812 20.15625 0 L 4.40625 -17.21875 L 4.40625 -6.96875 C 4.40625 -5.21875 4.476562 -3.957031 4.625 -3.1875 C 4.769531 -2.414062 5.082031 -1.847656 5.5625 -1.484375 C 6.050781 -1.128906 6.863281 -0.875 8 -0.71875 L 8 0 C 7.03125 -0.0703125 5.703125 -0.109375 4.015625 -0.109375 C 2.765625 -0.109375 1.78125 -0.0703125 1.0625 0 L 1.0625 -0.71875 C 1.800781 -0.875 2.347656 -1.125 2.703125 -1.46875 C 3.054688 -1.8125 3.289062 -2.335938 3.40625 -3.046875 C 3.53125 -3.765625 3.59375 -4.835938 3.59375 -6.265625 L 3.59375 -21.40625 C 3.59375 -22.3125 3.523438 -22.960938 3.390625 -23.359375 C 3.265625 -23.765625 3.035156 -24.035156 2.703125 -24.171875 C 2.367188 -24.316406 1.820312 -24.414062 1.0625 -24.46875 L 1.0625 -25.171875 C 1.78125 -25.109375 2.765625 -25.078125 4.015625 -25.078125 C 5.296875 -25.078125 6.390625 -25.109375 7.296875 -25.171875 L 21.828125 -9.8125 L 21.828125 -18.203125 C 21.828125 -19.960938 21.753906 -21.226562 21.609375 -22 C 21.472656 -22.769531 21.160156 -23.332031 20.671875 -23.6875 C 20.191406 -24.039062 19.382812 -24.300781 18.25 -24.46875 L 18.25 -25.171875 C 19.21875 -25.109375 20.546875 -25.078125 22.234375 -25.078125 C 23.484375 -25.078125 24.460938 -25.109375 25.171875 -25.171875 Z M 25.171875 -24.46875 "/></g></g></g><g fill="#38b6ff" fill-opacity="1"><g transform="translate(226.226122, 40.98729)"><g><path d="M 33.328125 -24.46875 C 32.566406 -24.414062 32.015625 -24.316406 31.671875 -24.171875 C 31.328125 -24.035156 31.09375 -23.765625 30.96875 -23.359375 C 30.851562 -22.960938 30.796875 -22.3125 30.796875 -21.40625 L 30.796875 -3.765625 C 30.796875 -2.867188 30.859375 -2.21875 30.984375 -1.8125 C 31.117188 -1.40625 31.351562 -1.128906 31.6875 -0.984375 C 32.019531 -0.847656 32.566406 -0.757812 33.328125 -0.71875 L 33.328125 0 C 31.878906 -0.0703125 29.78125 -0.109375 27.03125 -0.109375 C 24.15625 -0.109375 22.046875 -0.0703125 20.703125 0 L 20.703125 -0.71875 C 21.554688 -0.757812 22.175781 -0.847656 22.5625 -0.984375 C 22.957031 -1.128906 23.222656 -1.40625 23.359375 -1.8125 C 23.503906 -2.21875 23.578125 -2.867188 23.578125 -3.765625 L 23.578125 -21.9375 L 15 -0.03125 L 14.4375 -0.03125 L 4.40625 -22.859375 L 4.40625 -6.96875 C 4.40625 -5.21875 4.476562 -3.957031 4.625 -3.1875 C 4.769531 -2.414062 5.082031 -1.847656 5.5625 -1.484375 C 6.050781 -1.128906 6.863281 -0.875 8 -0.71875 L 8 0 C 7.03125 -0.0703125 5.703125 -0.109375 4.015625 -0.109375 C 2.765625 -0.109375 1.78125 -0.0703125 1.0625 0 L 1.0625 -0.71875 C 1.800781 -0.875 2.347656 -1.125 2.703125 -1.46875 C 3.054688 -1.8125 3.289062 -2.335938 3.40625 -3.046875 C 3.53125 -3.765625 3.59375 -4.835938 3.59375 -6.265625 L 3.59375 -21.40625 C 3.59375 -22.3125 3.523438 -22.960938 3.390625 -23.359375 C 3.265625 -23.765625 3.035156 -24.035156 2.703125 -24.171875 C 2.367188 -24.316406 1.820312 -24.414062 1.0625 -24.46875 L 1.0625 -25.171875 C 1.78125 -25.109375 2.765625 -25.078125 4.015625 -25.078125 C 6.859375 -25.078125 9.3125 -25.109375 11.375 -25.171875 L 18.09375 -10.0625 L 23.9375 -25.078125 L 27.03125 -25.078125 C 29.78125 -25.078125 31.878906 -25.109375 33.328125 -25.171875 Z M 33.328125 -24.46875 "/></g></g></g><g fill="#38b6ff" fill-opacity="1"><g transform="translate(261.417323, 40.98729)"><g><path d="M 13.265625 -24.46875 C 12.503906 -24.414062 11.953125 -24.316406 11.609375 -24.171875 C 11.265625 -24.035156 11.03125 -23.765625 10.90625 -23.359375 C 10.789062 -22.960938 10.734375 -22.3125 10.734375 -21.40625 L 10.734375 -3.765625 C 10.734375 -2.867188 10.796875 -2.21875 10.921875 -1.8125 C 11.054688 -1.40625 11.289062 -1.128906 11.625 -0.984375 C 11.957031 -0.847656 12.503906 -0.757812 13.265625 -0.71875 L 13.265625 0 C 11.890625 -0.0703125 9.910156 -0.109375 7.328125 -0.109375 C 4.453125 -0.109375 2.34375 -0.0703125 1 0 L 1 -0.71875 C 1.757812 -0.757812 2.3125 -0.847656 2.65625 -0.984375 C 3 -1.128906 3.226562 -1.40625 3.34375 -1.8125 C 3.457031 -2.21875 3.515625 -2.867188 3.515625 -3.765625 L 3.515625 -21.40625 C 3.515625 -22.3125 3.445312 -22.960938 3.3125 -23.359375 C 3.1875 -23.765625 2.957031 -24.035156 2.625 -24.171875 C 2.300781 -24.316406 1.757812 -24.414062 1 -24.46875 L 1 -25.171875 C 2.34375 -25.109375 4.453125 -25.078125 7.328125 -25.078125 C 9.890625 -25.078125 11.867188 -25.109375 13.265625 -25.171875 Z M 13.265625 -24.46875 "/></g></g></g><g fill="#38b6ff" fill-opacity="1"><g transform="translate(276.560394, 40.98729)"><g><path d="M 14.71875 -25.671875 C 16.144531 -25.671875 17.351562 -25.46875 18.34375 -25.0625 C 19.34375 -24.664062 20.316406 -24.097656 21.265625 -23.359375 C 21.503906 -23.148438 21.726562 -23.046875 21.9375 -23.046875 C 22.414062 -23.046875 22.722656 -23.753906 22.859375 -25.171875 L 23.6875 -25.171875 C 23.59375 -23.492188 23.546875 -20.53125 23.546875 -16.28125 L 22.71875 -16.28125 C 22.550781 -18.175781 22.242188 -19.671875 21.796875 -20.765625 C 21.347656 -21.859375 20.566406 -22.769531 19.453125 -23.5 C 18.335938 -24.21875 17.234375 -24.578125 16.140625 -24.578125 C 13.679688 -24.578125 11.953125 -23.390625 10.953125 -21.015625 C 9.953125 -18.648438 9.453125 -15.816406 9.453125 -12.515625 C 9.453125 -9.222656 9.953125 -6.390625 10.953125 -4.015625 C 11.953125 -1.648438 13.679688 -0.46875 16.140625 -0.46875 C 17.234375 -0.46875 18.335938 -0.820312 19.453125 -1.53125 C 20.566406 -2.21875 21.347656 -3.140625 21.796875 -4.296875 C 22.242188 -5.460938 22.550781 -7.113281 22.71875 -9.25 L 23.546875 -9.25 C 23.546875 -4.8125 23.59375 -1.726562 23.6875 0 L 22.859375 0 C 22.796875 -0.757812 22.695312 -1.296875 22.5625 -1.609375 C 22.4375 -1.929688 22.253906 -2.09375 22.015625 -2.09375 C 21.828125 -2.09375 21.578125 -2 21.265625 -1.8125 C 20.203125 -1.050781 19.179688 -0.472656 18.203125 -0.078125 C 17.234375 0.304688 16.0625 0.5 14.6875 0.5 C 12.007812 0.5 9.660156 -0.0078125 7.640625 -1.03125 C 5.628906 -2.050781 4.066406 -3.523438 2.953125 -5.453125 C 1.835938 -7.390625 1.28125 -9.695312 1.28125 -12.375 C 1.28125 -14.976562 1.847656 -17.285156 2.984375 -19.296875 C 4.117188 -21.316406 5.707031 -22.882812 7.75 -24 C 9.789062 -25.113281 12.113281 -25.671875 14.71875 -25.671875 Z M 14.71875 -25.671875 "/></g></g></g><g fill="#38b6ff" fill-opacity="1"><g transform="translate(302.936105, 40.98729)"><g><path d="M 28.484375 -24.46875 C 27.722656 -24.414062 27.171875 -24.316406 26.828125 -24.171875 C 26.484375 -24.035156 26.25 -23.765625 26.125 -23.359375 C 26.007812 -22.960938 25.953125 -22.3125 25.953125 -21.40625 L 25.953125 -3.765625 C 25.953125 -2.867188 26.019531 -2.21875 26.15625 -1.8125 C 26.289062 -1.40625 26.519531 -1.128906 26.84375 -0.984375 C 27.175781 -0.847656 27.722656 -0.757812 28.484375 -0.71875 L 28.484375 0 C 27.203125 -0.0703125 25.210938 -0.109375 22.515625 -0.109375 C 19.785156 -0.109375 17.6875 -0.0703125 16.21875 0 L 16.21875 -0.71875 C 16.976562 -0.757812 17.53125 -0.847656 17.875 -0.984375 C 18.21875 -1.128906 18.445312 -1.40625 18.5625 -1.8125 C 18.675781 -2.21875 18.734375 -2.867188 18.734375 -3.765625 L 18.734375 -12.296875 L 10.734375 -12.296875 L 10.734375 -3.765625 C 10.734375 -2.867188 10.796875 -2.21875 10.921875 -1.8125 C 11.054688 -1.40625 11.289062 -1.128906 11.625 -0.984375 C 11.957031 -0.847656 12.503906 -0.757812 13.265625 -0.71875 L 13.265625 0 C 11.890625 -0.0703125 9.910156 -0.109375 7.328125 -0.109375 C 4.453125 -0.109375 2.34375 -0.0703125 1 0 L 1 -0.71875 C 1.757812 -0.757812 2.3125 -0.847656 2.65625 -0.984375 C 3 -1.128906 3.226562 -1.40625 3.34375 -1.8125 C 3.457031 -2.21875 3.515625 -2.867188 3.515625 -3.765625 L 3.515625 -21.40625 C 3.515625 -22.3125 3.445312 -22.960938 3.3125 -23.359375 C 3.1875 -23.765625 2.957031 -24.035156 2.625 -24.171875 C 2.300781 -24.316406 1.757812 -24.414062 1 -24.46875 L 1 -25.171875 C 2.34375 -25.109375 4.453125 -25.078125 7.328125 -25.078125 C 9.890625 -25.078125 11.867188 -25.109375 13.265625 -25.171875 L 13.265625 -24.46875 C 12.503906 -24.414062 11.953125 -24.316406 11.609375 -24.171875 C 11.265625 -24.035156 11.03125 -23.765625 10.90625 -23.359375 C 10.789062 -22.960938 10.734375 -22.3125 10.734375 -21.40625 L 10.734375 -13.015625 L 18.734375 -13.015625 L 18.734375 -21.40625 C 18.734375 -22.3125 18.664062 -22.960938 18.53125 -23.359375 C 18.40625 -23.765625 18.175781 -24.035156 17.84375 -24.171875 C 17.519531 -24.316406 16.976562 -24.414062 16.21875 -24.46875 L 16.21875 -25.171875 C 17.6875 -25.109375 19.785156 -25.078125 22.515625 -25.078125 C 25.210938 -25.078125 27.203125 -25.109375 28.484375 -25.171875 Z M 28.484375 -24.46875 "/></g></g></g><g fill="#38b6ff" fill-opacity="1"><g transform="translate(333.293007, 40.98729)"><g><path d="M 13.265625 -24.46875 C 12.503906 -24.414062 11.953125 -24.316406 11.609375 -24.171875 C 11.265625 -24.035156 11.03125 -23.765625 10.90625 -23.359375 C 10.789062 -22.960938 10.734375 -22.3125 10.734375 -21.40625 L 10.734375 -3.765625 C 10.734375 -2.867188 10.796875 -2.21875 10.921875 -1.8125 C 11.054688 -1.40625 11.289062 -1.128906 11.625 -0.984375 C 11.957031 -0.847656 12.503906 -0.757812 13.265625 -0.71875 L 13.265625 0 C 11.890625 -0.0703125 9.910156 -0.109375 7.328125 -0.109375 C 4.453125 -0.109375 2.34375 -0.0703125 1 0 L 1 -0.71875 C 1.757812 -0.757812 2.3125 -0.847656 2.65625 -0.984375 C 3 -1.128906 3.226562 -1.40625 3.34375 -1.8125 C 3.457031 -2.21875 3.515625 -2.867188 3.515625 -3.765625 L 3.515625 -21.40625 C 3.515625 -22.3125 3.445312 -22.960938 3.3125 -23.359375 C 3.1875 -23.765625 2.957031 -24.035156 2.625 -24.171875 C 2.300781 -24.316406 1.757812 -24.414062 1 -24.46875 L 1 -25.171875 C 2.34375 -25.109375 4.453125 -25.078125 7.328125 -25.078125 C 9.890625 -25.078125 11.867188 -25.109375 13.265625 -25.171875 Z M 13.265625 -24.46875 "/></g></g></g><g fill="#38b6ff" fill-opacity="1"><g transform="translate(348.436077, 40.98729)"><g><path d="M 21.34375 -5.96875 C 21.34375 -3.550781 21.425781 -1.5625 21.59375 0 C 19.976562 -0.0703125 17.257812 -0.109375 13.4375 -0.109375 C 7.894531 -0.109375 3.75 -0.0703125 1 0 L 1 -0.71875 C 1.757812 -0.757812 2.3125 -0.847656 2.65625 -0.984375 C 3 -1.128906 3.226562 -1.40625 3.34375 -1.8125 C 3.457031 -2.21875 3.515625 -2.867188 3.515625 -3.765625 L 3.515625 -21.40625 C 3.515625 -22.3125 3.445312 -22.960938 3.3125 -23.359375 C 3.1875 -23.765625 2.957031 -24.035156 2.625 -24.171875 C 2.300781 -24.316406 1.757812 -24.414062 1 -24.46875 L 1 -25.171875 C 3.75 -25.109375 7.894531 -25.078125 13.4375 -25.078125 C 16.925781 -25.078125 19.40625 -25.109375 20.875 -25.171875 C 20.707031 -22.941406 20.625 -20.953125 20.625 -19.203125 C 20.625 -18.109375 20.660156 -17.253906 20.734375 -16.640625 L 19.921875 -16.640625 C 19.492188 -19.390625 18.695312 -21.363281 17.53125 -22.5625 C 16.375 -23.757812 14.988281 -24.359375 13.375 -24.359375 L 12.90625 -24.359375 C 12.269531 -24.359375 11.800781 -24.304688 11.5 -24.203125 C 11.207031 -24.097656 11.003906 -23.894531 10.890625 -23.59375 C 10.785156 -23.300781 10.734375 -22.8125 10.734375 -22.125 L 10.734375 -13.015625 L 11.09375 -13.015625 C 12.320312 -13.015625 13.375 -13.5 14.25 -14.46875 C 15.132812 -15.445312 15.695312 -16.523438 15.9375 -17.703125 L 16.75 -17.703125 C 16.675781 -16.710938 16.640625 -15.601562 16.640625 -14.375 L 16.640625 -12.65625 C 16.640625 -11.445312 16.710938 -9.765625 16.859375 -7.609375 L 16.03125 -7.609375 C 15.820312 -8.960938 15.269531 -10.082031 14.375 -10.96875 C 13.488281 -11.851562 12.394531 -12.296875 11.09375 -12.296875 L 10.734375 -12.296875 L 10.734375 -3.0625 C 10.734375 -2.375 10.785156 -1.878906 10.890625 -1.578125 C 11.003906 -1.285156 11.207031 -1.082031 11.5 -0.96875 C 11.800781 -0.863281 12.269531 -0.8125 12.90625 -0.8125 L 14.078125 -0.8125 C 15.453125 -0.8125 16.753906 -1.484375 17.984375 -2.828125 C 19.222656 -4.171875 20.101562 -6.3125 20.625 -9.25 L 21.4375 -9.25 C 21.375 -8.394531 21.34375 -7.300781 21.34375 -5.96875 Z M 21.34375 -5.96875 "/></g></g></g><g fill="#38b6ff" fill-opacity="1"><g transform="translate(372.430188, 40.98729)"><g><path d="M 13.625 -24.46875 C 12.769531 -24.414062 12.144531 -24.316406 11.75 -24.171875 C 11.363281 -24.035156 11.097656 -23.765625 10.953125 -23.359375 C 10.804688 -22.960938 10.734375 -22.3125 10.734375 -21.40625 L 10.734375 -3.0625 C 10.734375 -2.394531 10.78125 -1.90625 10.875 -1.59375 C 10.976562 -1.289062 11.144531 -1.082031 11.375 -0.96875 C 11.613281 -0.863281 12.003906 -0.8125 12.546875 -0.8125 L 13.734375 -0.8125 C 14.554688 -0.8125 15.453125 -1.226562 16.421875 -2.0625 C 17.398438 -2.894531 18.28125 -3.988281 19.0625 -5.34375 C 19.84375 -6.707031 20.363281 -8.128906 20.625 -9.609375 L 21.4375 -9.609375 C 21.375 -8.753906 21.34375 -7.660156 21.34375 -6.328125 C 21.34375 -3.765625 21.425781 -1.65625 21.59375 0 C 19.976562 -0.0703125 17.257812 -0.109375 13.4375 -0.109375 C 7.894531 -0.109375 3.75 -0.0703125 1 0 L 1 -0.71875 C 1.757812 -0.757812 2.3125 -0.847656 2.65625 -0.984375 C 3 -1.128906 3.226562 -1.40625 3.34375 -1.8125 C 3.457031 -2.21875 3.515625 -2.867188 3.515625 -3.765625 L 3.515625 -21.40625 C 3.515625 -22.3125 3.445312 -22.960938 3.3125 -23.359375 C 3.1875 -23.765625 2.957031 -24.035156 2.625 -24.171875 C 2.300781 -24.316406 1.757812 -24.414062 1 -24.46875 L 1 -25.171875 C 2.34375 -25.109375 4.453125 -25.078125 7.328125 -25.078125 C 10.054688 -25.078125 12.15625 -25.109375 13.625 -25.171875 Z M 13.625 -24.46875 "/></g></g></g><g fill="#38b6ff" fill-opacity="1"><g transform="translate(395.571187, 40.98729)"><g><path d="M 22.765625 -2.984375 C 23.066406 -2.222656 23.398438 -1.660156 23.765625 -1.296875 C 24.140625 -0.929688 24.503906 -0.738281 24.859375 -0.71875 L 24.859375 0 C 23.148438 -0.0703125 20.992188 -0.109375 18.390625 -0.109375 C 15.679688 -0.109375 13.6875 -0.0703125 12.40625 0 L 12.40625 -0.71875 C 13.3125 -0.757812 13.953125 -0.867188 14.328125 -1.046875 C 14.710938 -1.222656 14.90625 -1.535156 14.90625 -1.984375 C 14.90625 -2.410156 14.757812 -2.984375 14.46875 -3.703125 L 12.375 -9.53125 L 5.1875 -9.53125 L 4.59375 -7.9375 C 3.800781 -5.914062 3.40625 -4.375 3.40625 -3.3125 C 3.40625 -2.332031 3.675781 -1.664062 4.21875 -1.3125 C 4.769531 -0.957031 5.582031 -0.757812 6.65625 -0.71875 L 6.65625 0 C 4.875 -0.0703125 3.316406 -0.109375 1.984375 -0.109375 C 0.867188 -0.109375 -0.0390625 -0.0703125 -0.75 0 L -0.75 -0.71875 C -0.15625 -0.8125 0.398438 -1.175781 0.921875 -1.8125 C 1.441406 -2.457031 1.976562 -3.476562 2.53125 -4.875 L 10.421875 -25.171875 C 11.179688 -25.128906 11.804688 -25.109375 12.296875 -25.109375 C 12.773438 -25.109375 13.394531 -25.128906 14.15625 -25.171875 Z M 12.125 -10.234375 L 8.890625 -19.125 L 5.484375 -10.234375 Z M 12.125 -10.234375 "/></g></g></g><g fill="#38b6ff" fill-opacity="1"><g transform="translate(421.058237, 40.98729)"><g><path d="M 25.171875 -24.46875 C 24.441406 -24.300781 23.898438 -24.046875 23.546875 -23.703125 C 23.191406 -23.359375 22.953125 -22.828125 22.828125 -22.109375 C 22.710938 -21.398438 22.65625 -20.335938 22.65625 -18.921875 L 22.65625 0 C 22.175781 -0.0507812 21.785156 -0.078125 21.484375 -0.078125 C 21.222656 -0.078125 20.78125 -0.0507812 20.15625 0 L 4.40625 -17.21875 L 4.40625 -6.96875 C 4.40625 -5.21875 4.476562 -3.957031 4.625 -3.1875 C 4.769531 -2.414062 5.082031 -1.847656 5.5625 -1.484375 C 6.050781 -1.128906 6.863281 -0.875 8 -0.71875 L 8 0 C 7.03125 -0.0703125 5.703125 -0.109375 4.015625 -0.109375 C 2.765625 -0.109375 1.78125 -0.0703125 1.0625 0 L 1.0625 -0.71875 C 1.800781 -0.875 2.347656 -1.125 2.703125 -1.46875 C 3.054688 -1.8125 3.289062 -2.335938 3.40625 -3.046875 C 3.53125 -3.765625 3.59375 -4.835938 3.59375 -6.265625 L 3.59375 -21.40625 C 3.59375 -22.3125 3.523438 -22.960938 3.390625 -23.359375 C 3.265625 -23.765625 3.035156 -24.035156 2.703125 -24.171875 C 2.367188 -24.316406 1.820312 -24.414062 1.0625 -24.46875 L 1.0625 -25.171875 C 1.78125 -25.109375 2.765625 -25.078125 4.015625 -25.078125 C 5.296875 -25.078125 6.390625 -25.109375 7.296875 -25.171875 L 21.828125 -9.8125 L 21.828125 -18.203125 C 21.828125 -19.960938 21.753906 -21.226562 21.609375 -22 C 21.472656 -22.769531 21.160156 -23.332031 20.671875 -23.6875 C 20.191406 -24.039062 19.382812 -24.300781 18.25 -24.46875 L 18.25 -25.171875 C 19.21875 -25.109375 20.546875 -25.078125 22.234375 -25.078125 C 23.484375 -25.078125 24.460938 -25.109375 25.171875 -25.171875 Z M 25.171875 -24.46875 "/></g></g></g></svg>